<svg width="32" height="33" viewBox="0 0 32 33" fill="none" xmlns="http://www.w3.org/2000/svg">
<circle cx="16" cy="16.5" r="16" fill="#E0E0E0"/>
<path d="M16.7574 16.5L22.6999 10.5574C22.9092 10.3482 22.9092 10.009 22.6999 9.79977C22.4907 9.59057 22.1515 9.59055 21.9423 9.79977L15.9997 15.7424L10.0571 9.79977C9.8479 9.59055 9.50869 9.59055 9.2995 9.79977C9.0903 10.009 9.09027 10.3482 9.2995 10.5574L15.2421 16.5L9.2995 22.4426C9.09027 22.6518 9.09027 22.9911 9.2995 23.2003C9.40409 23.3049 9.54121 23.3571 9.67832 23.3571C9.81544 23.3571 9.95253 23.3049 10.0572 23.2003L15.9997 17.2577L21.9423 23.2003C22.0469 23.3049 22.184 23.3571 22.3211 23.3571C22.4582 23.3571 22.5953 23.3049 22.6999 23.2003C22.9092 22.991 22.9092 22.6518 22.6999 22.4426L16.7574 16.5Z" fill="#0B5FFB"/>
<path d="M16.7574 16.5L22.6999 10.5574C22.9092 10.3482 22.9092 10.009 22.6999 9.79977C22.4907 9.59057 22.1515 9.59055 21.9423 9.79977L15.9997 15.7424L10.0571 9.79977C9.8479 9.59055 9.50869 9.59055 9.2995 9.79977C9.0903 10.009 9.09027 10.3482 9.2995 10.5574L15.2421 16.5L9.2995 22.4426C9.09027 22.6518 9.09027 22.9911 9.2995 23.2003C9.40409 23.3049 9.54121 23.3571 9.67832 23.3571C9.81544 23.3571 9.95253 23.3049 10.0572 23.2003L15.9997 17.2577L21.9423 23.2003C22.0469 23.3049 22.184 23.3571 22.3211 23.3571C22.4582 23.3571 22.5953 23.3049 22.6999 23.2003C22.9092 22.991 22.9092 22.6518 22.6999 22.4426L16.7574 16.5Z" fill="black"/>
</svg>
