<svg width="28" height="28" viewBox="0 0 28 28" fill="none" xmlns="http://www.w3.org/2000/svg">
<path d="M25.6667 18.9669V23.9049C25.6707 24.2679 25.5929 24.6275 25.4388 24.9588C25.2846 25.2902 25.0578 25.5854 24.7738 25.8242C24.4898 26.0631 24.1554 26.2398 23.7937 26.3423C23.432 26.4448 23.0515 26.4706 22.6785 26.4179C17.5071 25.7782 12.7037 23.4999 9.02519 19.942C5.3467 16.384 3.00219 11.7487 2.36108 6.76633C2.30657 6.40816 2.33305 6.04288 2.43873 5.69549C2.54441 5.3481 2.72678 5.02679 2.97337 4.75355C3.21996 4.48031 3.52495 4.2616 3.86746 4.11237C4.20997 3.96315 4.58191 3.88694 4.95784 3.88896H10.0078C10.3304 3.88707 10.6423 4.00031 10.8833 4.20683C11.1243 4.41334 11.2773 4.69849 11.3127 5.00723C11.4422 6.65396 11.8845 8.26382 12.6176 9.75678C12.7433 10.0395 12.757 10.3569 12.656 10.6486C12.555 10.9404 12.3463 11.1864 12.0696 11.34L10.9474 11.9556C10.7856 12.0413 10.6446 12.159 10.5336 12.3011C10.4226 12.4431 10.3441 12.6062 10.3034 12.7796C10.2627 12.953 10.2607 13.1327 10.2975 13.3069C10.3342 13.4811 10.409 13.6458 10.5167 13.7901C11.8077 15.611 13.4408 17.1835 15.3318 18.4266C15.4817 18.5304 15.6528 18.6023 15.8337 18.6377C16.0146 18.6732 16.2012 18.6712 16.3813 18.632C16.5614 18.5928 16.7307 18.5173 16.8783 18.4104C17.0258 18.3035 17.148 18.1677 17.237 18.0119L17.8764 16.9314C18.0454 16.6614 18.3136 16.4624 18.6279 16.374C18.9421 16.2856 19.2794 16.3141 19.5728 16.4539C21.1233 17.1598 22.7951 17.5857 24.5053 17.7104C24.826 17.7446 25.1221 17.8919 25.3366 18.1239C25.551 18.3559 25.6686 18.6563 25.6667 18.9669Z" fill="#9F732C"/>
<path d="M25.1807 12.4444C24.8455 12.4444 24.524 12.3112 24.287 12.0742C24.05 11.8372 23.9168 11.5157 23.9168 11.1805C23.9168 9.50445 23.251 7.89708 22.0659 6.71195C20.8808 5.52683 19.2734 4.86103 17.5974 4.86103C17.2622 4.86103 16.9407 4.72787 16.7037 4.49085C16.4667 4.25382 16.3335 3.93234 16.3335 3.59714C16.3335 3.26194 16.4667 2.94046 16.7037 2.70344C16.9407 2.46641 17.2622 2.33325 17.5974 2.33325C19.9438 2.33325 22.1941 3.26537 23.8533 4.92454C25.5125 6.58372 26.4446 8.83404 26.4446 11.1805C26.4446 11.5157 26.3114 11.8372 26.0744 12.0742C25.8374 12.3112 25.5159 12.4444 25.1807 12.4444Z" fill="#9F732C"/>
<path d="M20.4168 12.4445C20.0558 12.4445 19.7096 12.3216 19.4544 12.1028C19.1991 11.884 19.0557 11.5873 19.0557 11.2778C19.0557 10.9684 18.9123 10.6717 18.6571 10.4529C18.4018 10.2341 18.0556 10.1112 17.6946 10.1112C17.3336 10.1112 16.9874 9.98825 16.7322 9.76946C16.4769 9.55066 16.3335 9.25392 16.3335 8.9445C16.3335 8.63508 16.4769 8.33833 16.7322 8.11954C16.9874 7.90075 17.3336 7.77783 17.6946 7.77783C18.7776 7.77783 19.8162 8.14658 20.582 8.80296C21.3477 9.45934 21.7779 10.3496 21.7779 11.2778C21.7779 11.5873 21.6345 11.884 21.3793 12.1028C21.124 12.3216 20.7778 12.4445 20.4168 12.4445Z" fill="#9F732C"/>
</svg>
