<svg width="33" height="32" viewBox="0 0 33 32" fill="none" xmlns="http://www.w3.org/2000/svg">
<path d="M20.5031 19.3571C20.4961 18.5435 20.271 17.7454 19.8498 17.0404C19.4286 16.3353 18.8255 15.7472 18.0992 15.3332L25.5 2.96429L23.77 2L16.1932 14.6572C15.2633 14.4569 14.2962 14.4846 13.3803 14.7378C12.4644 14.991 11.6289 15.4616 10.9503 16.1065C7.20639 19.5886 7.49638 27.7291 7.51038 28.0743C7.52072 28.3233 7.63062 28.5588 7.81704 28.7313C8.00347 28.9039 8.25194 29.0002 8.51036 29H23.501C23.7109 29 23.9155 28.9363 24.0857 28.818C24.256 28.6996 24.3833 28.5326 24.4497 28.3406C24.5161 28.1486 24.5181 27.9414 24.4555 27.7482C24.393 27.555 24.2689 27.3857 24.101 27.2643C20.5611 24.7031 20.5031 19.4092 20.5031 19.3571ZM15.4302 16.4614C16.2306 16.4699 16.9967 16.7756 17.5693 17.3149C18.1418 17.8543 18.4767 18.5858 18.5041 19.3571C18.5041 19.3938 18.5061 19.5577 18.5211 19.8094L12.6213 17.2791C13.0099 16.9701 13.4584 16.7386 13.9406 16.5983C14.4228 16.4579 14.9292 16.4114 15.4302 16.4614ZM18.9501 27.0714C18.1508 26.2866 17.6414 25.2701 17.5002 24.1786H15.5002C15.5718 25.2048 15.9043 26.1983 16.4682 27.0714H14.2452C13.834 25.82 13.5838 24.5246 13.5003 23.2143H11.5003C11.5648 24.5207 11.788 25.8152 12.1653 27.0714H9.50034C9.53134 25.301 9.79033 21.3899 11.3033 18.8239L18.8361 22.0543C19.1981 23.8664 19.9697 25.5795 21.0961 27.0714H18.9501Z" fill="#9C742D"/>
</svg>
