<svg width="57" height="56" viewBox="0 0 57 56" fill="none" xmlns="http://www.w3.org/2000/svg">
<path fill-rule="evenodd" clip-rule="evenodd" d="M6.37399 51.5C5.98452 51.5 5.611 51.342 5.33561 51.0607C5.06021 50.7794 4.90549 50.3978 4.90549 50V20C4.90549 19.6022 5.06021 19.2206 5.33561 18.9393C5.611 18.658 5.98452 18.5 6.37399 18.5H33.5412C34.1254 18.5 34.6857 18.2629 35.0988 17.841C35.5119 17.419 35.744 16.8467 35.744 16.25C35.744 15.6533 35.5119 15.081 35.0988 14.659C34.6857 14.2371 34.1254 14 33.5412 14H6.37399C4.81611 14 3.32204 14.6321 2.22045 15.7574C1.11887 16.8826 0.5 18.4087 0.5 20V50C0.5 51.5913 1.11887 53.1174 2.22045 54.2426C3.32204 55.3679 4.81611 56 6.37399 56H35.744C37.3018 56 38.7959 55.3679 39.8975 54.2426C40.9991 53.1174 41.6179 51.5913 41.6179 50V40.25C41.6179 39.6533 41.3859 39.081 40.9728 38.659C40.5597 38.2371 39.9994 38 39.4152 38C38.831 38 38.2707 38.2371 37.8576 38.659C37.4445 39.081 37.2125 39.6533 37.2125 40.25V50C37.2125 50.3978 37.0577 50.7794 36.7823 51.0607C36.5069 51.342 36.1334 51.5 35.744 51.5H6.37399ZM43.9088 25.04C44.2979 24.6135 44.5097 24.0493 44.4997 23.4664C44.4896 22.8835 44.2584 22.3274 43.8548 21.9151C43.4512 21.5029 42.9068 21.2668 42.3361 21.2565C41.7654 21.2462 41.2132 21.4626 40.7956 21.86L24.4718 38.531L18.9708 32.723C18.7701 32.5088 18.5299 32.3372 18.2641 32.2181C17.9982 32.099 17.712 32.0348 17.4217 32.0291C17.1315 32.0234 16.843 32.0763 16.5729 32.1849C16.3028 32.2935 16.0563 32.4555 15.8477 32.6617C15.6391 32.8678 15.4724 33.1141 15.3573 33.3863C15.2422 33.6585 15.1808 33.9512 15.1768 34.2477C15.1728 34.5442 15.2262 34.8385 15.334 35.1139C15.4417 35.3892 15.6017 35.64 15.8047 35.852L22.8623 43.304C23.0654 43.5191 23.3083 43.6908 23.5771 43.8089C23.8458 43.9271 24.1349 43.9894 24.4274 43.9922C24.72 43.995 25.0101 43.9382 25.281 43.8252C25.5518 43.7122 25.7979 43.5452 26.0049 43.334L43.9088 25.04Z" fill="#9C742D"/>
</svg>
