<svg width="33" height="32" viewBox="0 0 33 32" fill="none" xmlns="http://www.w3.org/2000/svg">
<path fill-rule="evenodd" clip-rule="evenodd" d="M29.5262 29.0265C29.9329 28.6197 29.9329 27.9602 29.5262 27.5534L4.94461 2.97187C4.53785 2.5651 3.87835 2.5651 3.47158 2.97187C3.06481 3.37864 3.06481 4.03813 3.47158 4.4449L28.0531 29.0265C28.4599 29.4332 29.1194 29.4332 29.5262 29.0265Z" fill="#9C742D" stroke="#9C742D" stroke-width="0.3" stroke-miterlimit="10" stroke-linecap="round" stroke-linejoin="round"/>
<path fill-rule="evenodd" clip-rule="evenodd" d="M6.18604 18.9958C6.18604 24.7018 10.8001 29.3323 16.4978 29.3323C20.1908 29.3323 23.4283 27.3858 25.248 24.4671C25.5523 23.9789 25.4033 23.3365 24.9152 23.0321C24.427 22.7278 23.7846 22.8768 23.4802 23.3649C22.024 25.7005 19.4403 27.2491 16.4978 27.2491C11.9559 27.2491 8.26922 23.5566 8.26922 18.9958V18.7111C8.26922 17.9064 8.61109 16.7913 9.26357 15.4515C9.90315 14.1382 10.7865 12.7172 11.7464 11.3335C12.0743 10.8609 11.9569 10.2119 11.4842 9.88403C11.0116 9.55615 10.3626 9.67351 10.0347 10.1462C9.04267 11.5763 8.09459 13.094 7.39068 14.5394C6.69968 15.9583 6.18604 17.4221 6.18604 18.7111V18.9958Z" fill="#9C742D" stroke="#9C742D" stroke-width="0.3" stroke-miterlimit="10" stroke-linecap="round" stroke-linejoin="round"/>
<path fill-rule="evenodd" clip-rule="evenodd" d="M25.6837 20.6329C26.2579 20.6692 26.7527 20.2332 26.789 19.6591C26.8029 19.4397 26.8099 19.2185 26.8099 18.9958V18.7111C26.8099 17.2221 26.1225 15.4831 25.2396 13.8221C24.3369 12.124 23.1453 10.3552 21.9714 8.76415C20.7947 7.16919 19.6203 5.73189 18.7413 4.69448C18.3014 4.17524 17.9343 3.7549 17.6766 3.4636C17.5477 3.31792 17.446 3.20444 17.3762 3.12691C17.3413 3.08814 17.3143 3.05836 17.2958 3.03803L17.2856 3.02675C17.2812 3.02189 17.2775 3.01787 17.2746 3.01469L17.2673 3.00669L17.2668 3.00616C17.2667 3.00599 17.2665 3.00587 16.4982 3.70911C15.7298 3.00587 15.7298 3.00591 15.7298 3.00595L15.7297 3.00607L15.7251 3.01107C15.7223 3.01417 15.7182 3.01863 15.7129 3.02442C15.7024 3.03601 15.687 3.05295 15.667 3.07502C15.6271 3.11917 15.5688 3.18391 15.494 3.26767C15.3444 3.43517 15.1287 3.67884 14.8622 3.98613C14.3294 4.60044 13.5919 5.47044 12.7714 6.49545C12.4119 6.94455 12.4846 7.60004 12.9337 7.95952C13.3828 8.31901 14.0383 8.24637 14.3978 7.79727C15.1977 6.79795 15.917 5.94933 16.4359 5.35109C16.457 5.32676 16.4778 5.30285 16.4982 5.27936C16.6886 5.49836 16.9087 5.75411 17.152 6.04117C18.0111 7.05515 19.1543 8.45455 20.2951 10.0009C21.4388 11.5511 22.5647 13.2282 23.4002 14.7999C24.2554 16.4087 24.7268 17.7634 24.7268 18.7111V18.9958C24.7268 19.1745 24.7211 19.3519 24.71 19.5276C24.6737 20.1017 25.1096 20.5966 25.6837 20.6329ZM16.4982 3.70911L15.7298 3.00587C15.9271 2.79029 16.2059 2.66752 16.4982 2.66752C16.7904 2.66752 17.0692 2.79029 17.2665 3.00587L16.4982 3.70911Z" fill="#9C742D"/>
<path d="M16.4982 3.70911C17.2665 3.00587 17.2667 3.00599 17.2668 3.00616L17.2673 3.00669L17.2746 3.01469C17.2775 3.01787 17.2812 3.02189 17.2856 3.02675L17.2958 3.03803C17.3143 3.05836 17.3413 3.08814 17.3762 3.12691C17.446 3.20444 17.5477 3.31792 17.6766 3.4636C17.9343 3.7549 18.3014 4.17524 18.7413 4.69448C19.6203 5.73189 20.7947 7.16919 21.9714 8.76415C23.1453 10.3552 24.3369 12.124 25.2396 13.8221C26.1225 15.4831 26.8099 17.2221 26.8099 18.7111V18.9958C26.8099 19.2185 26.8029 19.4397 26.789 19.6591C26.7527 20.2332 26.2579 20.6692 25.6837 20.6329C25.1096 20.5966 24.6737 20.1017 24.71 19.5276C24.7211 19.3519 24.7268 19.1745 24.7268 18.9958V18.7111C24.7268 17.7634 24.2554 16.4087 23.4002 14.7999C22.5647 13.2282 21.4388 11.5511 20.2951 10.0009C19.1543 8.45455 18.0111 7.05515 17.152 6.04117C16.9087 5.75411 16.6886 5.49836 16.4982 5.27936C16.4778 5.30285 16.457 5.32676 16.4359 5.35109C15.917 5.94933 15.1977 6.79795 14.3978 7.79727C14.0383 8.24637 13.3828 8.31901 12.9337 7.95952C12.4846 7.60004 12.4119 6.94455 12.7714 6.49545C13.5919 5.47044 14.3294 4.60044 14.8622 3.98613C15.1287 3.67884 15.3444 3.43517 15.494 3.26767C15.5688 3.18391 15.6271 3.11917 15.667 3.07502C15.687 3.05295 15.7024 3.03601 15.7129 3.02442C15.7182 3.01863 15.7223 3.01417 15.7251 3.01107L15.7297 3.00607L15.7298 3.00595C15.7298 3.00591 15.7298 3.00587 16.4982 3.70911ZM16.4982 3.70911L15.7298 3.00587C15.9271 2.79029 16.2059 2.66752 16.4982 2.66752C16.7904 2.66752 17.0692 2.79029 17.2665 3.00587L16.4982 3.70911Z" stroke="#9C742D" stroke-width="0.3" stroke-miterlimit="10" stroke-linecap="round" stroke-linejoin="round"/>
</svg>
