<svg width="32" height="32" viewBox="0 0 32 32" fill="none" xmlns="http://www.w3.org/2000/svg">
<path d="M9.80202 21.1633C9.89889 21.4644 10.0718 21.7354 10.3041 21.95C10.5364 22.1646 10.8202 22.3156 11.1279 22.3884C11.2721 22.422 11.421 22.4412 11.5651 22.4412C12.0455 22.4412 12.5115 22.2539 12.8574 21.9032L16.4941 18.2665L18.8481 21.0673L18.6416 21.2738C18.597 21.3183 18.5617 21.3711 18.5376 21.4292C18.5135 21.4873 18.5011 21.5496 18.5011 21.6125C18.5011 21.6755 18.5135 21.7377 18.5376 21.7959C18.5617 21.854 18.597 21.9068 18.6416 21.9512L24.099 27.4087C24.4881 27.7978 25.007 28.014 25.5595 28.014C26.1119 28.014 26.6308 27.7978 27.0199 27.4087L27.4042 27.0243C27.7934 26.6352 28.0095 26.1164 28.0095 25.5639C28.0095 25.0114 27.7934 24.4926 27.4042 24.1035L21.9516 18.646C21.9071 18.6015 21.8543 18.5661 21.7962 18.542C21.7381 18.5179 21.6758 18.5055 21.6129 18.5055C21.55 18.5055 21.4877 18.5179 21.4296 18.542C21.3714 18.5661 21.3186 18.6015 21.2742 18.646L21.0676 18.8526L18.2668 16.4986L21.9035 12.8619C22.3599 12.4055 22.5425 11.7569 22.3888 11.1276C22.235 10.4983 21.7786 9.99862 21.1877 9.81126L6.41032 4.08958C5.74736 3.8782 5.02674 4.04635 4.53672 4.53637C4.04671 5.02638 3.87376 5.747 4.09475 6.43879L9.80202 21.1633ZM26.7317 24.7856C26.9382 24.997 27.0535 25.2709 27.0535 25.5687C27.0535 25.8618 26.9382 26.1404 26.7317 26.3518L26.3473 26.7361C25.9294 27.1541 25.1991 27.1541 24.786 26.7361L19.6648 21.6149L21.6105 19.6693L26.7317 24.7856ZM5.21891 5.21855C5.45431 4.98315 5.8002 4.90148 6.08845 4.99756L20.8659 10.7192C21.1589 10.8153 21.3799 11.0507 21.452 11.3534C21.524 11.6608 21.4423 11.9635 21.2214 12.1797L17.527 15.874L11.4066 10.7337C11.3147 10.6549 11.1965 10.6138 11.0756 10.6185C10.9546 10.6232 10.84 10.6733 10.7544 10.7588C10.6688 10.8444 10.6187 10.9591 10.614 11.08C10.6094 11.2009 10.6505 11.3191 10.7292 11.411L15.8744 17.5314L12.18 21.2258C11.9591 21.4468 11.6564 21.5333 11.3537 21.4564C11.0511 21.3843 10.8109 21.1633 10.71 20.8415L5.00272 6.11691C4.90184 5.79984 4.9835 5.45395 5.21891 5.21855Z" fill="#9C742D"/>
<path fill-rule="evenodd" clip-rule="evenodd" d="M10.7099 20.8414C10.8108 21.1633 11.051 21.3843 11.3537 21.4564C11.6563 21.5332 11.959 21.4467 12.18 21.2258L15.8743 17.5314L10.7291 11.411C10.6504 11.3191 10.6093 11.2009 10.614 11.08C10.6187 10.9591 10.6688 10.8444 10.7543 10.7588C10.8399 10.6732 10.9546 10.6231 11.0755 10.6184C11.1964 10.6138 11.3146 10.6549 11.4065 10.7336L17.5269 15.874L21.2213 12.1796C21.4423 11.9635 21.524 11.6608 21.4519 11.3533C21.3798 11.0507 21.1588 10.8153 20.8658 10.7192L6.08838 4.99752C5.80014 4.90144 5.45424 4.9831 5.21884 5.21851C4.98344 5.45391 4.90177 5.7998 5.00266 6.11687L10.7099 20.8414ZM5.47554 5.9534L11.1821 20.6761L11.187 20.6919C11.2369 20.8509 11.3434 20.9399 11.4695 20.97L11.4768 20.9717C11.6045 21.0041 11.7271 20.9715 11.8264 20.8722L15.1965 17.5021L10.3476 11.7342C10.1881 11.5469 10.1049 11.3065 10.1144 11.0607C10.1239 10.8139 10.2262 10.5799 10.4008 10.4052C10.5754 10.2306 10.8094 10.1284 11.0562 10.1188C11.302 10.1093 11.5424 10.1926 11.7296 10.352L17.4975 15.1963L20.8716 11.8222C20.9602 11.7355 20.9994 11.6149 20.9653 11.4682C20.934 11.3383 20.8407 11.2372 20.71 11.1943L20.6975 11.1902L5.92205 5.46928C5.82257 5.44009 5.67778 5.46668 5.5724 5.57206C5.47403 5.67042 5.43615 5.81521 5.47554 5.9534ZM11.1279 22.3883C10.8201 22.3156 10.5364 22.1645 10.3041 21.9499C10.0718 21.7353 9.89882 21.4644 9.80195 21.1633L4.09468 6.43875C3.87369 5.74696 4.04664 5.02634 4.53666 4.53632C5.02668 4.04631 5.74729 3.87816 6.41026 4.08954L21.1877 9.81122C21.7786 9.99858 22.235 10.4982 22.3887 11.1275C22.5424 11.7569 22.3599 12.4054 21.9035 12.8618L18.2668 16.4985L21.0676 18.8525L21.2741 18.646C21.3186 18.6014 21.3714 18.5661 21.4295 18.542C21.4876 18.5179 21.5499 18.5055 21.6128 18.5055C21.6757 18.5055 21.738 18.5179 21.7962 18.542C21.8543 18.5661 21.9071 18.6014 21.9515 18.646L27.4042 24.1034C27.7933 24.4925 28.0095 25.0114 28.0095 25.5639C28.0095 26.1163 27.7933 26.6352 27.4042 27.0243L27.0198 27.4086C26.6307 27.7978 26.1119 28.014 25.5594 28.014C25.0069 28.014 24.4881 27.7978 24.0989 27.4086L18.6415 21.9512C18.597 21.9067 18.5616 21.8539 18.5375 21.7958C18.5134 21.7377 18.501 21.6754 18.501 21.6125C18.501 21.5496 18.5134 21.4873 18.5375 21.4292C18.5616 21.371 18.597 21.3182 18.6415 21.2738L18.8481 21.0672L16.4941 18.2664L12.8574 21.9031C12.5115 22.2538 12.0455 22.4412 11.5651 22.4412C11.4209 22.4412 11.272 22.422 11.1279 22.3883ZM13.2133 22.2542L13.2119 22.2557C12.7698 22.7032 12.1751 22.9412 11.5651 22.9412C11.3777 22.9412 11.1904 22.9164 11.0143 22.8753L11.0128 22.8749C10.6213 22.7823 10.2603 22.5902 9.96476 22.3172C9.67304 22.0477 9.45489 21.7083 9.33078 21.3312L3.623 6.60532L3.61839 6.59089C3.34233 5.72671 3.55648 4.8094 4.18311 4.18277C4.80847 3.55741 5.7252 3.34632 6.56215 3.61317L6.57662 3.61779L21.3546 9.33968C22.1126 9.58628 22.6828 10.2244 22.8744 11.0089C23.0696 11.8082 22.8368 12.6357 22.257 13.2154L19.0058 16.4666L21.0493 18.184C21.108 18.1427 21.1712 18.1078 21.2379 18.0801C21.3568 18.0308 21.4842 18.0055 21.6128 18.0055C21.7415 18.0055 21.8689 18.0308 21.9877 18.0801C22.1066 18.1294 22.2145 18.2017 22.3054 18.2928L27.7577 23.7499C28.2403 24.2324 28.5095 24.8783 28.5095 25.5639C28.5095 26.2494 28.2403 26.8953 27.7577 27.3779L27.3734 27.7622C26.8909 28.2447 26.245 28.514 25.5594 28.514C24.8738 28.514 24.2279 28.2447 23.7454 27.7622L18.2883 22.3051M13.2133 22.2542L16.4621 19.0055L18.1796 21.049C18.1382 21.1077 18.1033 21.1709 18.0757 21.2376C18.0264 21.3564 18.001 21.4838 18.001 21.6125C18.001 21.7412 18.0264 21.8686 18.0757 21.9874C18.1249 22.1061 18.1974 22.2143 18.2883 22.3051M24.7859 26.7361C25.1991 27.154 25.9293 27.154 26.3473 26.7361L26.7316 26.3517C26.9382 26.1404 27.0535 25.8617 27.0535 25.5687C27.0535 25.2708 26.9382 24.997 26.7316 24.7856L21.6109 19.6697L19.6648 21.6149L24.7859 26.7361ZM20.3719 21.6149L25.1415 26.3846C25.3578 26.6034 25.7699 26.6063 25.9937 26.3825L26.3758 26.0005C26.4918 25.8809 26.5535 25.7277 26.5535 25.5687C26.5535 25.406 26.4926 25.2573 26.3758 25.137L21.6106 20.3762L20.3719 21.6149Z" fill="#9C742D"/>
</svg>
