<svg width="33" height="32" viewBox="0 0 33 32" fill="none" xmlns="http://www.w3.org/2000/svg">
<g clip-path="url(#clip0_1534_336)">
<path d="M32.2227 1.60041L30.8969 0.274595C30.7491 0.126755 30.5561 0.0325748 30.3485 0.00702686C30.141 -0.0185211 29.9309 0.0260291 29.7517 0.133596L23.3452 3.97746H20.9532C20.7046 3.97746 20.4662 4.07621 20.2904 4.25202L7.03208 17.5102C5.21915 19.3231 5.17959 22.287 7.03639 24.1437L7.69927 24.798L3.97415 28.5231C3.60852 28.8887 3.0139 28.8886 2.64828 28.5231C2.28271 28.1576 2.28271 27.5628 2.64828 27.1973L3.31115 26.5344C3.67727 26.1683 3.67727 25.5747 3.31115 25.2086C2.94509 24.8425 2.35146 24.8425 1.98534 25.2086L1.32247 25.8715C0.225845 26.9681 0.225845 28.7523 1.32247 29.849C2.41902 30.9455 4.20334 30.9456 5.29996 29.849L9.0337 26.1152L14.722 31.7297C15.0888 32.0917 15.679 32.0899 16.0435 31.7254C17.874 29.895 17.8756 27.028 16.0435 25.196L15.6499 24.8024L18.4341 25.2001C21.042 25.5727 23.7208 24.6864 25.5935 22.8136C26.086 22.3211 25.887 21.4812 25.2271 21.2613L20.7 19.7522L28.2452 12.207C28.421 12.0312 28.5198 11.7928 28.5199 11.5441V9.1522L32.3637 2.74578C32.4713 2.56647 32.5158 2.35636 32.4903 2.14883C32.4647 1.9413 32.3706 1.74827 32.2227 1.60041ZM15.2679 29.6339L8.35789 22.8136C7.47596 21.9316 7.31746 20.6356 7.80758 19.6116L14.7178 26.5217C15.5751 27.3791 15.7719 28.6047 15.2679 29.6339ZM22.9775 22.4878C21.7028 23.2417 20.1884 23.5567 18.6993 23.3439L17.3072 23.145L19.2177 21.2345L22.9775 22.4878ZM14.3241 23.4765L9.02076 18.1732L10.3466 16.8473C13.1477 13.8235 12.4876 14.4708 12.8537 14.1047L18.3016 8.89245C18.6678 9.25851 18.6674 8.5267 18.3016 8.89245L19.6274 7.56664L24.9308 12.8699L14.3241 23.4765ZM26.6449 11.1558L26.2565 11.5441L20.9532 6.24077L21.3416 5.85246H23.2166L26.6449 9.28076V11.1558ZM27.3962 7.38052L25.1169 5.10115L30.0887 2.11803L30.3793 2.40865L27.3962 7.38052Z" fill="#9C742D"/>
</g>
<defs>
<clipPath id="clip0_1534_336">
<rect width="32" height="32" fill="white" transform="translate(0.5)"/>
</clipPath>
</defs>
</svg>
