<svg width="33" height="32" viewBox="0 0 33 32" fill="none" xmlns="http://www.w3.org/2000/svg">
<path d="M4.5 6.66667C4.5 5.95942 4.78095 5.28115 5.28105 4.78105C5.78115 4.28095 6.45942 4 7.16667 4H20.5C21.2072 4 21.8855 4.28095 22.3856 4.78105C22.8857 5.28115 23.1667 5.95942 23.1667 6.66667V9.33333C23.1667 10.0406 22.8857 10.7189 22.3856 11.219C21.8855 11.719 21.2072 12 20.5 12H7.16667C6.45942 12 5.78115 11.719 5.28105 11.219C4.78095 10.7189 4.5 10.0406 4.5 9.33333V6.66667Z" stroke="#9C742D" stroke-width="2.5" stroke-linecap="round" stroke-linejoin="round"/>
<path d="M23.1665 8H24.4998C25.2071 8 25.8854 8.28095 26.3855 8.78105C26.8856 9.28115 27.1665 9.95942 27.1665 10.6667C27.1665 12.4348 26.4641 14.1305 25.2139 15.3807C23.9636 16.631 22.2679 17.3333 20.4998 17.3333H13.8332V20M11.1665 21.3333C11.1665 20.9797 11.307 20.6406 11.557 20.3905C11.8071 20.1405 12.1462 20 12.4998 20H15.1665C15.5201 20 15.8593 20.1405 16.1093 20.3905C16.3594 20.6406 16.4998 20.9797 16.4998 21.3333V26.6667C16.4998 27.0203 16.3594 27.3594 16.1093 27.6095C15.8593 27.8595 15.5201 28 15.1665 28H12.4998C12.1462 28 11.8071 27.8595 11.557 27.6095C11.307 27.3594 11.1665 27.0203 11.1665 26.6667V21.3333Z" stroke="#9C742D" stroke-width="2.5" stroke-linecap="round" stroke-linejoin="round"/>
</svg>
