<svg width="33" height="32" viewBox="0 0 33 32" fill="none" xmlns="http://www.w3.org/2000/svg">
<path fill-rule="evenodd" clip-rule="evenodd" d="M25.7584 1.60648e-09C26.0388 -1.54464e-05 26.3076 0.111381 26.5057 0.309661L29.5243 3.33017C29.9365 3.74264 29.9365 4.41109 29.5244 4.8236L16.7861 17.5729C16.3738 17.9857 15.7049 17.986 15.2921 17.5736C14.8794 17.1612 14.8791 16.4923 15.2915 16.0796L27.2836 4.07701L25.7586 2.55099L13.7676 14.5524C13.3552 14.9652 12.6863 14.9655 12.2736 14.5531C11.8609 14.1407 11.8606 13.4718 12.273 13.0591L25.0112 0.309744C25.2093 0.111442 25.4781 1.54496e-05 25.7584 1.60648e-09Z" fill="#9C742D"/>
<path fill-rule="evenodd" clip-rule="evenodd" d="M12.2108 11.9398C12.4911 11.9398 12.7599 12.0512 12.9581 12.2495L17.5555 16.85C17.9678 17.2625 17.9678 17.931 17.5555 18.3435L13.0273 22.8747L12.968 30.7731C12.9636 31.3534 12.4919 31.8216 11.9116 31.8216H7.47492C6.89147 31.8216 6.4185 31.3486 6.4185 30.7652V26.9241C6.4185 26.3407 6.89147 25.8677 7.47492 25.8677C8.05836 25.8677 8.53133 26.3407 8.53133 26.9241V29.7088H10.8631L10.9177 22.4261C10.9198 22.1488 11.0309 21.8834 11.2269 21.6872L15.3148 17.5967L12.2108 14.4907L3.66548 23.0417C3.25306 23.4543 2.58417 23.4546 2.17148 23.0421C1.75879 22.6297 1.75857 21.9608 2.17099 21.5481L11.4636 12.2495C11.6617 12.0512 11.9305 11.9398 12.2108 11.9398Z" fill="#9C742D"/>
<path fill-rule="evenodd" clip-rule="evenodd" d="M21.4323 3.89097C21.845 3.47854 22.5139 3.47875 22.9264 3.89144L25.9449 6.91188C26.3573 7.32457 26.3571 7.99345 25.9444 8.40588C25.5317 8.81831 24.8628 8.81809 24.4504 8.40541L21.4319 5.38497C21.0195 4.97228 21.0197 4.3034 21.4323 3.89097ZM8.30693 15.4089C8.71962 14.9965 9.3885 14.9967 9.80093 15.4094L13.6922 19.3032C13.7424 19.1997 13.8104 19.1027 13.8964 19.0168C14.3091 18.6044 14.9779 18.6046 15.3904 19.0173L16.887 20.5149C18.2784 21.9072 18.2784 24.1645 16.887 25.5568L12.6818 29.7648C12.2694 30.1774 11.6005 30.1777 11.1878 29.7652C10.7751 29.3528 10.7749 28.6839 11.1873 28.2712L15.3925 24.0633C15.9595 23.496 15.9595 22.5758 15.3925 22.0084L16.1397 21.2616L15.3925 22.0084L14.6021 21.2175C14.5519 21.321 14.4838 21.418 14.3979 21.5038C13.9852 21.9163 13.3163 21.9161 12.9039 21.5034L8.30645 16.9029C7.89402 16.4903 7.89424 15.8214 8.30693 15.4089ZM2.14316 21.5767C2.55585 21.1642 3.22474 21.1645 3.63716 21.5771L7.48737 25.4299L11.2273 21.6875C11.6397 21.2748 12.3086 21.2746 12.7213 21.687C13.134 22.0994 13.1342 22.7683 12.7218 23.181L8.23462 27.6711C8.03648 27.8694 7.76767 27.9808 7.48737 27.9808C7.20707 27.9808 6.93826 27.8694 6.74013 27.6711L2.14267 23.0707C1.73025 22.658 1.73047 21.9891 2.14316 21.5767Z" fill="#9C742D"/>
</svg>
