<svg width="33" height="32" viewBox="0 0 33 32" fill="none" xmlns="http://www.w3.org/2000/svg">
<g clip-path="url(#clip0_1534_164)">
<mask id="mask0_1534_164" style="mask-type:alpha" maskUnits="userSpaceOnUse" x="0" y="0" width="33" height="32">
<rect x="0.5" width="32" height="32" fill="white"/>
</mask>
<g mask="url(#mask0_1534_164)">
<path d="M16.0335 28.8667C14.3668 28.8667 12.8057 28.5501 11.3502 27.9167C9.89461 27.2834 8.62794 26.4279 7.55016 25.3501C6.47239 24.2723 5.61683 23.0056 4.9835 21.5501C4.35016 20.0945 4.0335 18.5334 4.0335 16.8667C4.0335 15.2001 4.35016 13.639 4.9835 12.1834C5.61683 10.7279 6.47239 9.46119 7.55016 8.38341C8.62794 7.30564 9.89461 6.45008 11.3502 5.81675C12.8057 5.18341 14.3668 4.86675 16.0335 4.86675C17.7002 4.86675 19.2613 5.18341 20.7168 5.81675C22.1724 6.45008 23.4391 7.30564 24.5168 8.38341C25.5946 9.46119 26.4502 10.7279 27.0835 12.1834C27.7168 13.639 28.0335 15.2001 28.0335 16.8667C28.0335 18.5334 27.7168 20.0945 27.0835 21.5501C26.4502 23.0056 25.5946 24.2723 24.5168 25.3501C23.4391 26.4279 22.1724 27.2834 20.7168 27.9167C19.2613 28.5501 17.7002 28.8667 16.0335 28.8667ZM19.7668 22.4667L21.6335 20.6001L17.3668 16.3334V10.2001H14.7002V17.4001L19.7668 22.4667ZM7.50016 2.66675L9.36683 4.53341L3.70016 10.2001L1.8335 8.33341L7.50016 2.66675ZM24.5668 2.66675L30.2335 8.33341L28.3668 10.2001L22.7002 4.53341L24.5668 2.66675ZM16.0335 26.2001C18.6335 26.2001 20.8391 25.2945 22.6502 23.4834C24.4613 21.6723 25.3668 19.4667 25.3668 16.8667C25.3668 14.2667 24.4613 12.0612 22.6502 10.2501C20.8391 8.43897 18.6335 7.53341 16.0335 7.53341C13.4335 7.53341 11.2279 8.43897 9.41683 10.2501C7.60572 12.0612 6.70016 14.2667 6.70016 16.8667C6.70016 19.4667 7.60572 21.6723 9.41683 23.4834C11.2279 25.2945 13.4335 26.2001 16.0335 26.2001Z" fill="#9C742D"/>
</g>
</g>
<defs>
<clipPath id="clip0_1534_164">
<rect width="32" height="32" fill="white" transform="translate(0.5)"/>
</clipPath>
</defs>
</svg>
