<svg width="33" height="32" viewBox="0 0 33 32" fill="none" xmlns="http://www.w3.org/2000/svg">
<mask id="mask0_1534_236" style="mask-type:luminance" maskUnits="userSpaceOnUse" x="0" y="0" width="33" height="32">
<path d="M0.5 9.34601e-05H32.4999V32H0.5V9.34601e-05Z" fill="white"/>
</mask>
<g mask="url(#mask0_1534_236)">
<path fill-rule="evenodd" clip-rule="evenodd" d="M6.14844 10.3516C6.14844 16.0686 10.783 20.7031 16.5 20.7031C22.2169 20.7031 26.8515 16.0686 26.8515 10.3516C26.8515 4.63459 22.2169 6.32778e-05 16.5 6.32778e-05C10.783 6.32778e-05 6.14844 4.63459 6.14844 10.3516ZM16.5 18.8281C11.8186 18.8281 8.02343 15.0331 8.02343 10.3516C8.02343 5.67013 11.8186 1.87506 16.5 1.87506C21.1814 1.87506 24.9765 5.67013 24.9765 10.3516C24.9765 15.0331 21.1814 18.8281 16.5 18.8281Z" fill="#9C742D"/>
<path fill-rule="evenodd" clip-rule="evenodd" d="M16.5 32L25.9765 24.3119V21.6991H23.0859V17.6131H21.2109V23.5741H23.9099L16.5 29.5856L9.09005 23.5741H11.789V17.6136H9.91405V21.6991H7.02344V24.3119L16.5 32Z" fill="#9C742D"/>
<path fill-rule="evenodd" clip-rule="evenodd" d="M13.0898 12.3384C13.0898 13.9151 14.3679 15.1934 15.9448 15.1934H17.0361C18.6319 15.1934 19.9256 13.8996 19.9256 12.3038C19.9256 10.7079 18.6319 9.41425 17.0361 9.41425H15.9638C15.4035 9.41425 14.9492 8.95999 14.9492 8.39969C14.9492 7.83936 15.4035 7.38513 15.9638 7.38513H17.0115C17.5725 7.38513 18.0273 7.83992 18.0273 8.40088H19.9023C19.9023 6.80435 18.608 5.51014 17.0115 5.51014H15.9638C14.368 5.51014 13.0742 6.80379 13.0742 8.39969C13.0742 9.99552 14.3679 11.2892 15.9638 11.2892H17.0361C17.5964 11.2892 18.0506 11.7435 18.0506 12.3038C18.0506 12.8641 17.5964 13.3184 17.0361 13.3184H15.9448C15.4035 13.3184 14.9648 12.8796 14.9648 12.3384H13.0898Z" fill="#9C742D"/>
<path fill-rule="evenodd" clip-rule="evenodd" d="M17.4375 6.44751V4.20158H15.5625V6.44751H17.4375Z" fill="#9C742D"/>
<path fill-rule="evenodd" clip-rule="evenodd" d="M17.4375 16.5017V14.2558H15.5625V16.5017H17.4375Z" fill="#9C742D"/>
</g>
</svg>
