<svg width="33" height="32" viewBox="0 0 33 32" fill="none" xmlns="http://www.w3.org/2000/svg">
<g clip-path="url(#clip0_1534_219)">
<path d="M17.436 2.92675L26.7693 6.42675C27.2777 6.61732 27.7159 6.95855 28.0251 7.40482C28.3344 7.85109 28.5001 8.38112 28.5 8.92408V16.0747C28.5 18.3033 27.8795 20.4879 26.7079 22.3836C25.5363 24.2794 23.8599 25.8114 21.8667 26.8081L17.3947 29.0441C17.1169 29.183 16.8106 29.2553 16.5 29.2553C16.1894 29.2553 15.8831 29.183 15.6053 29.0441L11.1333 26.8081C9.14005 25.8114 7.46369 24.2794 6.29209 22.3836C5.12049 20.4879 4.49995 18.3033 4.5 16.0747V8.92408C4.49993 8.38112 4.66561 7.85109 4.97487 7.40482C5.28414 6.95855 5.72226 6.61732 6.23067 6.42675L15.564 2.92675C16.1675 2.70052 16.8325 2.70052 17.436 2.92675ZM16.5 5.42408L7.16667 8.92408V16.0747C7.16697 17.8079 7.64986 19.5067 8.56122 20.9809C9.47258 22.4551 10.7764 23.6464 12.3267 24.4214L16.5 26.5107L20.6733 24.4241C22.224 23.6489 23.5281 22.4572 24.4395 20.9825C25.3509 19.5078 25.8335 17.8084 25.8333 16.0747V8.92408L16.5 5.42408ZM16.5 18.6667C16.8536 18.6667 17.1928 18.8072 17.4428 19.0573C17.6929 19.3073 17.8333 19.6465 17.8333 20.0001C17.8333 20.3537 17.6929 20.6928 17.4428 20.9429C17.1928 21.1929 16.8536 21.3334 16.5 21.3334C16.1464 21.3334 15.8072 21.1929 15.5572 20.9429C15.3071 20.6928 15.1667 20.3537 15.1667 20.0001C15.1667 19.6465 15.3071 19.3073 15.5572 19.0573C15.8072 18.8072 16.1464 18.6667 16.5 18.6667ZM16.5 9.33341C16.8536 9.33341 17.1928 9.47389 17.4428 9.72394C17.6929 9.97398 17.8333 10.3131 17.8333 10.6667V16.0001C17.8333 16.3537 17.6929 16.6928 17.4428 16.9429C17.1928 17.1929 16.8536 17.3334 16.5 17.3334C16.1464 17.3334 15.8072 17.1929 15.5572 16.9429C15.3071 16.6928 15.1667 16.3537 15.1667 16.0001V10.6667C15.1667 10.3131 15.3071 9.97398 15.5572 9.72394C15.8072 9.47389 16.1464 9.33341 16.5 9.33341Z" fill="#9C742D"/>
</g>
<defs>
<clipPath id="clip0_1534_219">
<rect width="32" height="32" fill="white" transform="translate(0.5)"/>
</clipPath>
</defs>
</svg>
