<svg width="33" height="32" viewBox="0 0 33 32" fill="none" xmlns="http://www.w3.org/2000/svg">
<mask id="path-1-outside-1_1534_647" maskUnits="userSpaceOnUse" x="2.1665" y="4.33325" width="28" height="23" fill="black">
<rect fill="white" x="2.1665" y="4.33325" width="28" height="23"/>
<path d="M11.9929 9.49648L17.0451 6.72334C17.0552 6.71779 17.0652 6.7119 17.075 6.70579C17.252 6.59096 17.458 6.52629 17.6702 6.51895C17.8824 6.51162 18.0926 6.56191 18.2774 6.66424C18.4762 6.77072 18.6415 6.92825 18.7555 7.11983C18.8694 7.31141 18.9278 7.52977 18.9241 7.75138V15.1793C18.9234 15.2576 18.9385 15.3353 18.9686 15.4078C18.9987 15.4804 19.0432 15.5464 19.0996 15.602C19.1559 15.6576 19.223 15.7018 19.2969 15.7319C19.3708 15.7621 19.4501 15.7776 19.5302 15.7776C19.6103 15.7776 19.6896 15.7621 19.7635 15.7319C19.8374 15.7018 19.9045 15.6576 19.9608 15.602C20.0172 15.5464 20.0617 15.4804 20.0918 15.4078C20.1219 15.3353 20.137 15.2576 20.1362 15.1793V7.75149C20.1382 7.3176 20.0206 6.8912 19.796 6.51702C19.5713 6.14284 19.2478 5.83466 18.8593 5.62482C18.4866 5.42186 18.0646 5.32148 17.6381 5.33435C17.2117 5.34722 16.7968 5.47287 16.4376 5.69792L11.3995 8.46312C11.2619 8.54133 11.1613 8.66932 11.1194 8.81945C11.0776 8.96958 11.0978 9.12979 11.1757 9.26547C11.2536 9.40115 11.383 9.50142 11.5359 9.54461C11.6888 9.58781 11.853 9.57046 11.9929 9.49632V9.49648ZM27.4424 8.55088C27.3505 8.42197 27.2099 8.33406 27.0516 8.30648C26.8934 8.2789 26.7304 8.31391 26.5985 8.40382C26.4667 8.49372 26.3768 8.63115 26.3486 8.78588C26.3203 8.9406 26.3562 9.09994 26.4481 9.22885C27.7091 11.0009 28.4515 13.0759 28.5952 15.23C28.7389 17.3841 28.2786 19.5358 27.2637 21.453C27.1897 21.5925 27.1753 21.755 27.2238 21.9048C27.2723 22.0547 27.3797 22.1795 27.5223 22.2519C27.665 22.3244 27.8312 22.3384 27.9845 22.291C28.1377 22.2436 28.2655 22.1386 28.3395 21.9991C29.4563 19.89 29.963 17.5229 29.8049 15.153C29.6468 12.7831 28.83 10.5003 27.4425 8.55088H27.4424ZM23.7728 15.9999C23.7743 16.8204 23.6164 17.6336 23.3075 18.3965C23.2761 18.4692 23.2599 18.5473 23.2597 18.6263C23.2596 18.7052 23.2756 18.7834 23.3068 18.8562C23.338 18.929 23.3838 18.995 23.4415 19.0503C23.4991 19.1055 23.5675 19.149 23.6426 19.178C23.7176 19.2071 23.7979 19.2212 23.8786 19.2196C23.9594 19.2179 24.0389 19.2005 24.1127 19.1683C24.1864 19.1362 24.2529 19.0899 24.3081 19.0323C24.3633 18.9747 24.4062 18.9069 24.4342 18.8329C24.9113 17.6508 25.0821 16.3717 24.9316 15.1094C24.7811 13.8472 24.3138 12.6409 23.5713 11.5978C23.5257 11.534 23.4677 11.4796 23.4007 11.4377C23.3336 11.3958 23.2587 11.3672 23.1804 11.3536C23.102 11.34 23.0217 11.3417 22.944 11.3584C22.8662 11.3752 22.7927 11.4067 22.7274 11.4513C22.6622 11.4958 22.6065 11.5525 22.5637 11.6181C22.5208 11.6836 22.4916 11.7568 22.4777 11.8334C22.4638 11.91 22.4654 11.9886 22.4826 12.0646C22.4997 12.1406 22.532 12.2125 22.5775 12.2763C23.3585 13.3677 23.7759 14.668 23.7728 15.9999ZM5.9723 6.9056C5.91053 6.85585 5.8393 6.81856 5.76271 6.79587C5.68613 6.77318 5.6057 6.76555 5.52608 6.7734C5.44646 6.78126 5.36922 6.80446 5.29881 6.84165C5.22841 6.87885 5.16624 6.92931 5.11588 6.99011C5.06553 7.05092 5.02799 7.12088 5.00544 7.19595C4.98289 7.27101 4.97576 7.3497 4.98448 7.42748C4.99319 7.50525 5.01758 7.58056 5.05622 7.64907C5.09486 7.71758 5.147 7.77794 5.20963 7.82664L8.0502 10.0747H5.89378C5.17071 10.0755 4.47749 10.3567 3.9662 10.8566C3.45491 11.3564 3.16732 12.0342 3.1665 12.7411V19.2588C3.16732 19.9657 3.45491 20.6434 3.9662 21.1433C4.47749 21.6431 5.17071 21.9243 5.89378 21.9251H8.46259L16.4376 26.3019C16.7968 26.5269 17.2117 26.6526 17.6382 26.6655C18.0646 26.6784 18.4867 26.578 18.8594 26.375C19.2479 26.1652 19.5715 25.857 19.7961 25.4828C20.0208 25.1086 20.1384 24.6822 20.1365 24.2483V19.6399L27.0281 25.0942C27.1532 25.1915 27.3126 25.2365 27.4714 25.2195C27.6303 25.2025 27.7759 25.1248 27.8765 25.0033C27.9771 24.8818 28.0245 24.7265 28.0085 24.571C27.9924 24.4155 27.9142 24.2725 27.7908 24.1731L5.9723 6.9056ZM4.37861 19.2588V12.7411C4.3791 12.3483 4.5389 11.9718 4.82294 11.6942C5.10698 11.4165 5.49208 11.2602 5.89378 11.2598H8.01526V20.74H5.89378C5.49209 20.7395 5.107 20.5833 4.82296 20.3056C4.53892 20.028 4.37912 19.6515 4.37861 19.2588ZM18.9241 24.2484C18.9277 24.47 18.8694 24.6883 18.7554 24.8799C18.6414 25.0715 18.4761 25.229 18.2773 25.3355C18.0925 25.4378 17.8824 25.488 17.6701 25.4807C17.4579 25.4734 17.2519 25.4088 17.075 25.294C17.0652 25.2878 17.0552 25.282 17.045 25.2764L9.22736 20.9858V11.0141L9.23304 11.0109L18.9241 18.6807V24.2484Z"/>
</mask>
<path d="M11.9929 9.49648L17.0451 6.72334C17.0552 6.71779 17.0652 6.7119 17.075 6.70579C17.252 6.59096 17.458 6.52629 17.6702 6.51895C17.8824 6.51162 18.0926 6.56191 18.2774 6.66424C18.4762 6.77072 18.6415 6.92825 18.7555 7.11983C18.8694 7.31141 18.9278 7.52977 18.9241 7.75138V15.1793C18.9234 15.2576 18.9385 15.3353 18.9686 15.4078C18.9987 15.4804 19.0432 15.5464 19.0996 15.602C19.1559 15.6576 19.223 15.7018 19.2969 15.7319C19.3708 15.7621 19.4501 15.7776 19.5302 15.7776C19.6103 15.7776 19.6896 15.7621 19.7635 15.7319C19.8374 15.7018 19.9045 15.6576 19.9608 15.602C20.0172 15.5464 20.0617 15.4804 20.0918 15.4078C20.1219 15.3353 20.137 15.2576 20.1362 15.1793V7.75149C20.1382 7.3176 20.0206 6.8912 19.796 6.51702C19.5713 6.14284 19.2478 5.83466 18.8593 5.62482C18.4866 5.42186 18.0646 5.32148 17.6381 5.33435C17.2117 5.34722 16.7968 5.47287 16.4376 5.69792L11.3995 8.46312C11.2619 8.54133 11.1613 8.66932 11.1194 8.81945C11.0776 8.96958 11.0978 9.12979 11.1757 9.26547C11.2536 9.40115 11.383 9.50142 11.5359 9.54461C11.6888 9.58781 11.853 9.57046 11.9929 9.49632V9.49648ZM27.4424 8.55088C27.3505 8.42197 27.2099 8.33406 27.0516 8.30648C26.8934 8.2789 26.7304 8.31391 26.5985 8.40382C26.4667 8.49372 26.3768 8.63115 26.3486 8.78588C26.3203 8.9406 26.3562 9.09994 26.4481 9.22885C27.7091 11.0009 28.4515 13.0759 28.5952 15.23C28.7389 17.3841 28.2786 19.5358 27.2637 21.453C27.1897 21.5925 27.1753 21.755 27.2238 21.9048C27.2723 22.0547 27.3797 22.1795 27.5223 22.2519C27.665 22.3244 27.8312 22.3384 27.9845 22.291C28.1377 22.2436 28.2655 22.1386 28.3395 21.9991C29.4563 19.89 29.963 17.5229 29.8049 15.153C29.6468 12.7831 28.83 10.5003 27.4425 8.55088H27.4424ZM23.7728 15.9999C23.7743 16.8204 23.6164 17.6336 23.3075 18.3965C23.2761 18.4692 23.2599 18.5473 23.2597 18.6263C23.2596 18.7052 23.2756 18.7834 23.3068 18.8562C23.338 18.929 23.3838 18.995 23.4415 19.0503C23.4991 19.1055 23.5675 19.149 23.6426 19.178C23.7176 19.2071 23.7979 19.2212 23.8786 19.2196C23.9594 19.2179 24.0389 19.2005 24.1127 19.1683C24.1864 19.1362 24.2529 19.0899 24.3081 19.0323C24.3633 18.9747 24.4062 18.9069 24.4342 18.8329C24.9113 17.6508 25.0821 16.3717 24.9316 15.1094C24.7811 13.8472 24.3138 12.6409 23.5713 11.5978C23.5257 11.534 23.4677 11.4796 23.4007 11.4377C23.3336 11.3958 23.2587 11.3672 23.1804 11.3536C23.102 11.34 23.0217 11.3417 22.944 11.3584C22.8662 11.3752 22.7927 11.4067 22.7274 11.4513C22.6622 11.4958 22.6065 11.5525 22.5637 11.6181C22.5208 11.6836 22.4916 11.7568 22.4777 11.8334C22.4638 11.91 22.4654 11.9886 22.4826 12.0646C22.4997 12.1406 22.532 12.2125 22.5775 12.2763C23.3585 13.3677 23.7759 14.668 23.7728 15.9999ZM5.9723 6.9056C5.91053 6.85585 5.8393 6.81856 5.76271 6.79587C5.68613 6.77318 5.6057 6.76555 5.52608 6.7734C5.44646 6.78126 5.36922 6.80446 5.29881 6.84165C5.22841 6.87885 5.16624 6.92931 5.11588 6.99011C5.06553 7.05092 5.02799 7.12088 5.00544 7.19595C4.98289 7.27101 4.97576 7.3497 4.98448 7.42748C4.99319 7.50525 5.01758 7.58056 5.05622 7.64907C5.09486 7.71758 5.147 7.77794 5.20963 7.82664L8.0502 10.0747H5.89378C5.17071 10.0755 4.47749 10.3567 3.9662 10.8566C3.45491 11.3564 3.16732 12.0342 3.1665 12.7411V19.2588C3.16732 19.9657 3.45491 20.6434 3.9662 21.1433C4.47749 21.6431 5.17071 21.9243 5.89378 21.9251H8.46259L16.4376 26.3019C16.7968 26.5269 17.2117 26.6526 17.6382 26.6655C18.0646 26.6784 18.4867 26.578 18.8594 26.375C19.2479 26.1652 19.5715 25.857 19.7961 25.4828C20.0208 25.1086 20.1384 24.6822 20.1365 24.2483V19.6399L27.0281 25.0942C27.1532 25.1915 27.3126 25.2365 27.4714 25.2195C27.6303 25.2025 27.7759 25.1248 27.8765 25.0033C27.9771 24.8818 28.0245 24.7265 28.0085 24.571C27.9924 24.4155 27.9142 24.2725 27.7908 24.1731L5.9723 6.9056ZM4.37861 19.2588V12.7411C4.3791 12.3483 4.5389 11.9718 4.82294 11.6942C5.10698 11.4165 5.49208 11.2602 5.89378 11.2598H8.01526V20.74H5.89378C5.49209 20.7395 5.107 20.5833 4.82296 20.3056C4.53892 20.028 4.37912 19.6515 4.37861 19.2588ZM18.9241 24.2484C18.9277 24.47 18.8694 24.6883 18.7554 24.8799C18.6414 25.0715 18.4761 25.229 18.2773 25.3355C18.0925 25.4378 17.8824 25.488 17.6701 25.4807C17.4579 25.4734 17.2519 25.4088 17.075 25.294C17.0652 25.2878 17.0552 25.282 17.045 25.2764L9.22736 20.9858V11.0141L9.23304 11.0109L18.9241 18.6807V24.2484Z" fill="#9C742D"/>
<path d="M11.9929 9.49648L17.0451 6.72334C17.0552 6.71779 17.0652 6.7119 17.075 6.70579C17.252 6.59096 17.458 6.52629 17.6702 6.51895C17.8824 6.51162 18.0926 6.56191 18.2774 6.66424C18.4762 6.77072 18.6415 6.92825 18.7555 7.11983C18.8694 7.31141 18.9278 7.52977 18.9241 7.75138V15.1793C18.9234 15.2576 18.9385 15.3353 18.9686 15.4078C18.9987 15.4804 19.0432 15.5464 19.0996 15.602C19.1559 15.6576 19.223 15.7018 19.2969 15.7319C19.3708 15.7621 19.4501 15.7776 19.5302 15.7776C19.6103 15.7776 19.6896 15.7621 19.7635 15.7319C19.8374 15.7018 19.9045 15.6576 19.9608 15.602C20.0172 15.5464 20.0617 15.4804 20.0918 15.4078C20.1219 15.3353 20.137 15.2576 20.1362 15.1793V7.75149C20.1382 7.3176 20.0206 6.8912 19.796 6.51702C19.5713 6.14284 19.2478 5.83466 18.8593 5.62482C18.4866 5.42186 18.0646 5.32148 17.6381 5.33435C17.2117 5.34722 16.7968 5.47287 16.4376 5.69792L11.3995 8.46312C11.2619 8.54133 11.1613 8.66932 11.1194 8.81945C11.0776 8.96958 11.0978 9.12979 11.1757 9.26547C11.2536 9.40115 11.383 9.50142 11.5359 9.54461C11.6888 9.58781 11.853 9.57046 11.9929 9.49632V9.49648ZM27.4424 8.55088C27.3505 8.42197 27.2099 8.33406 27.0516 8.30648C26.8934 8.2789 26.7304 8.31391 26.5985 8.40382C26.4667 8.49372 26.3768 8.63115 26.3486 8.78588C26.3203 8.9406 26.3562 9.09994 26.4481 9.22885C27.7091 11.0009 28.4515 13.0759 28.5952 15.23C28.7389 17.3841 28.2786 19.5358 27.2637 21.453C27.1897 21.5925 27.1753 21.755 27.2238 21.9048C27.2723 22.0547 27.3797 22.1795 27.5223 22.2519C27.665 22.3244 27.8312 22.3384 27.9845 22.291C28.1377 22.2436 28.2655 22.1386 28.3395 21.9991C29.4563 19.89 29.963 17.5229 29.8049 15.153C29.6468 12.7831 28.83 10.5003 27.4425 8.55088H27.4424ZM23.7728 15.9999C23.7743 16.8204 23.6164 17.6336 23.3075 18.3965C23.2761 18.4692 23.2599 18.5473 23.2597 18.6263C23.2596 18.7052 23.2756 18.7834 23.3068 18.8562C23.338 18.929 23.3838 18.995 23.4415 19.0503C23.4991 19.1055 23.5675 19.149 23.6426 19.178C23.7176 19.2071 23.7979 19.2212 23.8786 19.2196C23.9594 19.2179 24.0389 19.2005 24.1127 19.1683C24.1864 19.1362 24.2529 19.0899 24.3081 19.0323C24.3633 18.9747 24.4062 18.9069 24.4342 18.8329C24.9113 17.6508 25.0821 16.3717 24.9316 15.1094C24.7811 13.8472 24.3138 12.6409 23.5713 11.5978C23.5257 11.534 23.4677 11.4796 23.4007 11.4377C23.3336 11.3958 23.2587 11.3672 23.1804 11.3536C23.102 11.34 23.0217 11.3417 22.944 11.3584C22.8662 11.3752 22.7927 11.4067 22.7274 11.4513C22.6622 11.4958 22.6065 11.5525 22.5637 11.6181C22.5208 11.6836 22.4916 11.7568 22.4777 11.8334C22.4638 11.91 22.4654 11.9886 22.4826 12.0646C22.4997 12.1406 22.532 12.2125 22.5775 12.2763C23.3585 13.3677 23.7759 14.668 23.7728 15.9999ZM5.9723 6.9056C5.91053 6.85585 5.8393 6.81856 5.76271 6.79587C5.68613 6.77318 5.6057 6.76555 5.52608 6.7734C5.44646 6.78126 5.36922 6.80446 5.29881 6.84165C5.22841 6.87885 5.16624 6.92931 5.11588 6.99011C5.06553 7.05092 5.02799 7.12088 5.00544 7.19595C4.98289 7.27101 4.97576 7.3497 4.98448 7.42748C4.99319 7.50525 5.01758 7.58056 5.05622 7.64907C5.09486 7.71758 5.147 7.77794 5.20963 7.82664L8.0502 10.0747H5.89378C5.17071 10.0755 4.47749 10.3567 3.9662 10.8566C3.45491 11.3564 3.16732 12.0342 3.1665 12.7411V19.2588C3.16732 19.9657 3.45491 20.6434 3.9662 21.1433C4.47749 21.6431 5.17071 21.9243 5.89378 21.9251H8.46259L16.4376 26.3019C16.7968 26.5269 17.2117 26.6526 17.6382 26.6655C18.0646 26.6784 18.4867 26.578 18.8594 26.375C19.2479 26.1652 19.5715 25.857 19.7961 25.4828C20.0208 25.1086 20.1384 24.6822 20.1365 24.2483V19.6399L27.0281 25.0942C27.1532 25.1915 27.3126 25.2365 27.4714 25.2195C27.6303 25.2025 27.7759 25.1248 27.8765 25.0033C27.9771 24.8818 28.0245 24.7265 28.0085 24.571C27.9924 24.4155 27.9142 24.2725 27.7908 24.1731L5.9723 6.9056ZM4.37861 19.2588V12.7411C4.3791 12.3483 4.5389 11.9718 4.82294 11.6942C5.10698 11.4165 5.49208 11.2602 5.89378 11.2598H8.01526V20.74H5.89378C5.49209 20.7395 5.107 20.5833 4.82296 20.3056C4.53892 20.028 4.37912 19.6515 4.37861 19.2588ZM18.9241 24.2484C18.9277 24.47 18.8694 24.6883 18.7554 24.8799C18.6414 25.0715 18.4761 25.229 18.2773 25.3355C18.0925 25.4378 17.8824 25.488 17.6701 25.4807C17.4579 25.4734 17.2519 25.4088 17.075 25.294C17.0652 25.2878 17.0552 25.282 17.045 25.2764L9.22736 20.9858V11.0141L9.23304 11.0109L18.9241 18.6807V24.2484Z" stroke="#9C742D" stroke-width="0.6" mask="url(#path-1-outside-1_1534_647)"/>
</svg>
