<svg width="57" height="56" viewBox="0 0 57 56" fill="none" xmlns="http://www.w3.org/2000/svg">
<mask id="mask0_1534_206" style="mask-type:alpha" maskUnits="userSpaceOnUse" x="0" y="0" width="57" height="56">
<rect x="0.5" width="56" height="56" fill="white"/>
</mask>
<g mask="url(#mask0_1534_206)">
<path d="M33.7498 53.9333C32.8554 54.8277 31.7471 55.275 30.4248 55.275C29.1026 55.275 27.9943 54.8277 27.0998 53.9333L6.5665 33.4C6.13873 32.9722 5.79845 32.4666 5.54567 31.8833C5.29289 31.3 5.1665 30.6777 5.1665 30.0166V13.3333C5.1665 12.05 5.62345 10.9513 6.53734 10.0375C7.45123 9.12357 8.54984 8.66663 9.83317 8.66663H26.5165C27.1776 8.66663 27.7998 8.79301 28.3832 9.04579C28.9665 9.29857 29.4721 9.63885 29.8998 10.0666L50.4332 30.6583C51.3276 31.5527 51.7748 32.6513 51.7748 33.9541C51.7748 35.2569 51.3276 36.3555 50.4332 37.25L33.7498 53.9333ZM30.4248 50.6666L47.1082 33.9833L26.5165 13.3333H9.83317V30.0166L30.4248 50.6666ZM15.6665 22.6666C16.6387 22.6666 17.4651 22.3263 18.1457 21.6458C18.8262 20.9652 19.1665 20.1388 19.1665 19.1666C19.1665 18.1944 18.8262 17.368 18.1457 16.6875C17.4651 16.0069 16.6387 15.6666 15.6665 15.6666C14.6943 15.6666 13.8679 16.0069 13.1873 16.6875C12.5068 17.368 12.1665 18.1944 12.1665 19.1666C12.1665 20.1388 12.5068 20.9652 13.1873 21.6458C13.8679 22.3263 14.6943 22.6666 15.6665 22.6666Z" fill="#9C742D"/>
</g>
</svg>
