<svg width="57" height="56" viewBox="0 0 57 56" fill="none" xmlns="http://www.w3.org/2000/svg">
<path d="M41.8333 18.6667V51.3333C41.8333 51.9522 41.5875 52.5457 41.1499 52.9833C40.7123 53.4208 40.1188 53.6667 39.5 53.6667H6.83333C6.21449 53.6667 5.621 53.4208 5.18342 52.9833C4.74583 52.5457 4.5 51.9522 4.5 51.3333V9.33333C4.5 8.71449 4.74583 8.121 5.18342 7.68342C5.621 7.24583 6.21449 7 6.83333 7H30.1667M41.8333 18.6667H30.1667V7M41.8333 18.6667L30.1667 7" stroke="#9C742D" stroke-width="4" stroke-linecap="round" stroke-linejoin="round"/>
<path d="M17.5668 26.8333H28.7668L32.5002 31.6376L23.1668 43.1666L13.8335 31.6376L17.5668 26.8333Z" stroke="#9C742D" stroke-width="4" stroke-linecap="round" stroke-linejoin="round"/>
</svg>
